# MagicaVoxel @ Ephtracy

# group
o 

# material
mtllib CableElRot.mtl
usemtl palette

# normals
vn -1 0 0
vn 1 0 0
vn 0 0 1
vn 0 0 -1
vn 0 -1 0
vn 0 1 0

# texcoords
vt 0.208984 0.5
vt 0.990234 0.5

# verts
v -2 2.5 -1.8
v -2 2.5 -2
v -2 2.6 -1.8
v -2 2.6 -2
v -2 2.7 -1.8
v -2 2.7 -2
v -2 2.8 -1.8
v -2 2.8 -2
v 0.2 0 -1.8
v 0.2 0 -2
v 0.2 2.5 -1.8
v 0.2 2.5 -2
v 0.5 0 -1.8
v 0.5 0 -2
v 0.5 2.8 -1.8
v 0.5 2.8 -2
v -2 2.5 -1.8
v -2 2.6 -1.8
v -2 2.7 -1.8
v -2 2.8 -1.8
v 0.2 0 -1.8
v 0.2 2.5 -1.8
v 0.3 0 -1.8
v 0.3 2.6 -1.8
v 0.4 0 -1.8
v 0.4 2.7 -1.8
v 0.5 0 -1.8
v 0.5 2.8 -1.8
v -2 2.5 -2
v -2 2.6 -2
v -2 2.7 -2
v -2 2.8 -2
v 0.2 0 -2
v 0.2 2.5 -2
v 0.3 0 -2
v 0.3 2.6 -2
v 0.4 0 -2
v 0.4 2.7 -2
v 0.5 0 -2
v 0.5 2.8 -2
v 0.2 0 -1.8
v 0.3 0 -1.8
v 0.4 0 -1.8
v 0.5 0 -1.8
v 0.2 0 -2
v 0.3 0 -2
v 0.4 0 -2
v 0.5 0 -2
v -2 2.5 -1.8
v 0.2 2.5 -1.8
v -2 2.5 -2
v 0.2 2.5 -2
v -2 2.8 -1.8
v 0.5 2.8 -1.8
v -2 2.8 -2
v 0.5 2.8 -2

# faces
f 3/2/1 2/2/1 1/2/1
f 4/2/1 2/2/1 3/2/1
f 5/1/1 4/1/1 3/1/1
f 6/1/1 4/1/1 5/1/1
f 7/2/1 6/2/1 5/2/1
f 8/2/1 6/2/1 7/2/1
f 11/2/1 10/2/1 9/2/1
f 12/2/1 10/2/1 11/2/1
f 13/2/2 14/2/2 15/2/2
f 15/2/2 14/2/2 16/2/2
f 22/2/3 18/2/3 17/2/3
f 23/2/3 22/2/3 21/2/3
f 24/1/3 19/1/3 18/1/3
f 24/2/3 22/2/3 23/2/3
f 24/2/3 18/2/3 22/2/3
f 25/1/3 24/1/3 23/1/3
f 26/2/3 20/2/3 19/2/3
f 26/1/3 24/1/3 25/1/3
f 26/1/3 19/1/3 24/1/3
f 27/2/3 26/2/3 25/2/3
f 28/2/3 20/2/3 26/2/3
f 28/2/3 26/2/3 27/2/3
f 29/2/4 30/2/4 34/2/4
f 33/2/4 34/2/4 35/2/4
f 30/1/4 31/1/4 36/1/4
f 35/2/4 34/2/4 36/2/4
f 34/2/4 30/2/4 36/2/4
f 35/1/4 36/1/4 37/1/4
f 31/2/4 32/2/4 38/2/4
f 37/1/4 36/1/4 38/1/4
f 36/1/4 31/1/4 38/1/4
f 37/2/4 38/2/4 39/2/4
f 38/2/4 32/2/4 40/2/4
f 39/2/4 38/2/4 40/2/4
f 45/2/5 42/2/5 41/2/5
f 46/1/5 43/1/5 42/1/5
f 46/2/5 42/2/5 45/2/5
f 47/2/5 44/2/5 43/2/5
f 47/1/5 43/1/5 46/1/5
f 48/2/5 44/2/5 47/2/5
f 51/2/5 50/2/5 49/2/5
f 52/2/5 50/2/5 51/2/5
f 53/2/6 54/2/6 55/2/6
f 55/2/6 54/2/6 56/2/6
